<svg width="158" height="36" viewBox="0 0 158 36" fill="none" xmlns="http://www.w3.org/2000/svg">
<g clip-path="url(#clip0_5_181)">
<path fill-rule="evenodd" clip-rule="evenodd" d="M8.90907 0.466553H14.5133L9.85326 25.7351H4.24902L8.90907 0.466553Z" fill="#FFA100"/>
<path fill-rule="evenodd" clip-rule="evenodd" d="M4.66005 0.466553L0 25.7351H3.28945L7.94949 0.466553H4.66005Z" fill="#FFCC00"/>
<path fill-rule="evenodd" clip-rule="evenodd" d="M133.085 0.947752C134.517 0.947752 135.689 2.07047 135.689 3.44107C135.689 4.81166 134.517 5.93439 133.085 5.93439C131.654 5.93439 130.481 4.81166 130.481 3.44107C130.481 2.07047 131.654 0.947752 133.085 0.947752ZM56.3773 26.2017C58.6311 26.2017 61.083 25.7497 62.9257 25.1665L64.5247 16.52L65.1339 13.2248H59.8495L59.2555 16.52H60.5043L59.4383 22.3815C58.7073 22.5273 58.1743 22.6002 57.3671 22.6002C55.1894 22.6002 54.2604 22.192 54.2604 20.6173C54.2604 20.2527 54.3366 19.6987 54.4127 19.2904L56.4991 8.09234C57.0016 5.38032 57.9154 4.50547 60.748 4.50547C62.5145 4.50547 64.1897 4.86999 65.7278 5.38032L66.4893 1.8955C64.7989 1.26853 62.8952 0.90401 60.6414 0.90401C55.2808 0.90401 53.1792 2.91616 52.2959 7.68408L50.1486 19.2904C50.042 19.8445 49.9659 20.5735 49.9659 21.1567C49.9507 24.6124 52.5853 26.2017 56.3773 26.2017ZM71.2102 26.1288C75.8398 26.1288 78.0175 24.0729 78.7485 20.1944L79.8603 14.1142C79.9821 13.3852 79.9821 13.1227 79.9821 12.6853C79.9821 9.65249 77.9871 7.6695 74.0885 7.6695C69.6873 7.6695 67.4335 9.50668 66.7025 13.5018L65.5603 19.757C65.4842 20.1652 65.4385 20.6318 65.4385 21.0693C65.4232 24.1458 67.5705 26.1288 71.2102 26.1288ZM74.4692 20.3256C74.2103 21.7983 73.5098 22.6731 71.6671 22.6731C70.2203 22.6731 69.596 21.9441 69.596 20.836C69.596 20.6173 69.6416 20.3548 69.6721 20.1361L70.9056 13.5018C71.2559 11.6355 72.1696 11.0814 73.6621 11.0814C75.0784 11.0814 75.7637 11.7375 75.7637 12.9478C75.7637 13.1665 75.718 13.4581 75.6875 13.6768L74.4692 20.3256ZM92.0891 25.7497L94.678 11.6063C94.7541 11.1981 94.7998 10.9064 94.7998 10.6586C94.7998 8.89429 93.9622 7.65492 91.815 7.65492C90.0179 7.65492 87.8707 8.52977 86.3021 9.59417L86.2259 7.72782L82.6319 8.38396L79.4643 25.7497H83.6675L86.1193 12.4228C87.0788 11.9125 88.6016 11.1835 89.5611 11.1835C90.2159 11.1835 90.4748 11.548 90.3682 12.2333L87.8707 25.7497H92.0891ZM96.0943 11.3147H102.262L94.0688 22.8481L94.2211 25.7497H104.668L105.232 22.4544H98.9573L107.15 10.921L107.059 8.01944H96.81L96.0943 11.3147ZM106.206 21.7254C106.13 22.1191 106.1 22.4253 106.1 22.746C106.1 24.8311 107.394 26.1142 109.618 26.1142C111.613 26.1142 113.364 24.9769 114.552 23.8396L114.597 25.7497H118.07L121.054 9.52126C119.608 8.71932 117.384 7.65492 114.597 7.65492C109.968 7.65492 108.506 9.30255 107.744 13.4435L106.206 21.7254ZM114.704 21.2151C113.79 21.9878 112.679 22.6002 111.567 22.6002C110.607 22.6002 110.379 22.017 110.531 21.1713L111.948 13.4435C112.206 11.9708 112.526 11.096 114.506 11.096C115.161 11.096 115.953 11.2418 116.486 11.4313L114.704 21.2151ZM124.451 25.7497L129.202 0L124.877 0.626974L120.247 25.7497H124.451ZM131.014 25.7497L134.349 7.72782L130.024 8.38396L126.811 25.7497H131.014ZM139.299 22.644C138.842 22.644 138.72 22.4253 138.796 22.017L140.715 11.5334H144.583L145.192 8.01944H141.37L142.284 3.03281L138.004 3.39733L137.167 8.01944H135.019L134.365 11.5334H136.512L134.486 22.6294C134.441 22.8481 134.41 23.0668 134.41 23.2855C134.41 24.8894 135.598 26.1142 137.7 26.1142C139.116 26.1142 140.563 25.8226 142.527 25.1227L141.994 21.9733C140.867 22.3524 139.954 22.644 139.299 22.644ZM149.243 26.1288C153.873 26.1288 156.051 24.0729 156.782 20.1944L157.893 14.1142C158.015 13.3852 158.015 13.1227 158.015 12.6853C158.015 9.65249 156.02 7.6695 152.121 7.6695C147.72 7.6695 145.466 9.50668 144.735 13.5018L143.593 19.757C143.517 20.1652 143.471 20.6318 143.471 21.0693C143.456 24.1458 145.603 26.1288 149.243 26.1288ZM152.487 20.3256C152.228 21.7983 151.528 22.6731 149.7 22.6731C148.253 22.6731 147.629 21.9441 147.629 20.836C147.629 20.6173 147.675 20.3548 147.705 20.1361L148.939 13.5018C149.289 11.6355 150.203 11.0814 151.695 11.0814C153.111 11.0814 153.797 11.7375 153.797 12.9478C153.797 13.1665 153.751 13.4581 153.721 13.6768L152.487 20.3256Z" fill="black"/>
<path fill-rule="evenodd" clip-rule="evenodd" d="M24.9906 0.466607H35.4529C35.0417 1.06442 34.7523 1.77888 34.0975 2.0705C30.8081 -0.466564 28.5542 4.17013 31.006 5.3366C32.0111 4.70962 32.864 3.8931 33.5493 2.85786C34.3107 2.5954 34.8894 2.17256 35.529 1.63307C35.9097 1.31229 36.3514 0.88945 36.4428 0.452026H51.5346L46.8746 25.7351H42.0165C42.1688 25.6331 42.3211 25.5456 42.4886 25.4581C43.5547 24.9186 44.773 24.802 45.1537 23.6209C45.1537 23.5772 45.1689 23.5334 45.1689 23.4897C45.0166 23.3147 44.91 23.1106 44.6664 23.0669C44.1486 22.9794 43.9202 23.5043 43.4633 23.6209C42.8084 23.7813 42.245 23.446 41.3617 23.446C41.4226 23.2856 41.7881 23.1398 41.9099 22.921C41.0571 22.1045 40.4936 21.2005 39.9911 20.1069C39.7017 19.48 39.3363 18.8676 39.123 18.2698C39.0926 18.1677 39.1078 18.0365 39.0621 17.9344C38.7576 17.2054 37.8286 17.2199 36.7626 17.045C36.1229 16.9429 35.4376 16.8263 34.9046 16.7679C33.7016 16.6221 34.1889 16.593 34.3107 16.0389C34.4021 15.5869 33.9452 14.9308 34.3869 14.4933C34.7523 14.7412 35.3615 14.887 35.8488 14.887C36.7626 14.9016 38.453 14.4496 39.3667 14.26C39.3972 14.1434 39.184 13.9684 39.3362 13.9538C39.9149 13.983 40.7373 13.8226 40.7221 13.2831C40.7221 13.1082 40.5393 13.1665 40.5089 13.0353C40.4936 12.9478 40.6764 12.904 40.6155 12.7582C40.4175 12.5395 40.2043 12.3645 40.1129 12.0729C39.7627 12.0438 39.6561 11.7959 39.3667 11.723C39.1078 11.8396 38.8642 11.9563 38.788 12.2771C38.3159 12.2916 38.255 12.7874 38.3921 13.0353C38.1027 13.0936 37.7829 13.2831 37.326 13.254C36.8996 13.2394 36.3666 12.9624 35.925 12.9332C35.7422 12.9186 35.529 12.9769 35.4072 12.9332C35.3767 12.1167 36.1382 12.0438 36.26 11.3876C36.3057 11.096 36.0011 10.6294 35.6052 10.4399C35.6509 10.1191 35.9554 10.2649 36.1839 10.1191C36.0773 9.98787 35.7575 9.95871 35.8031 9.78374C35.9402 9.56503 36.26 9.17135 36.5037 9.02554C36.8844 8.82141 37.5088 10.0608 38.2093 9.72542C38.4225 9.68167 38.3768 9.50671 38.5748 9.30257C38.6509 9.21509 38.8642 9.17135 38.9098 9.06928C38.9708 8.92347 38.9098 8.73392 38.9708 8.58811C39.3058 8.42773 39.5799 8.71934 39.6408 8.44231C39.7017 8.19443 39.3667 7.71327 39.4581 7.39249C40.1129 6.98423 40.1891 5.84692 39.717 5.27827C40.0672 5.1033 40.387 4.92833 40.4023 4.43259C40.4175 3.99516 39.9454 3.30986 39.4276 2.94534C38.9403 2.5954 38.3921 2.28921 37.7829 2.30379C38.5748 2.56624 38.9251 2.98909 38.8642 3.80561C38.6205 3.12031 37.92 2.84328 37.0824 2.74121C35.4681 2.42043 35.0874 3.41193 33.8995 3.8931C33.9757 4.19929 34.2193 4.08265 34.3564 4.37426C33.8843 4.59297 33.5797 4.76794 33.2295 4.418C33.0467 5.14704 33.4579 5.36576 33.6254 5.91983C33.3817 5.87608 33.2599 6.0948 33.1076 6.08022C33.1838 6.48848 33.7168 7.18836 34.1432 7.47997C34.3259 7.6112 34.5848 7.62578 34.6153 7.82991C34.6457 8.07779 34.265 8.7485 34.0366 8.85057C33.8691 8.66102 33.8386 8.6756 33.6102 8.6027C33.5493 8.89431 33.4883 8.85057 33.4579 9.17135C33.2599 8.92347 32.864 8.73392 32.5746 8.71934C32.27 8.71934 31.6152 8.80683 31.402 8.92347C30.1228 8.48605 28.8892 8.57353 27.6861 8.69018C27.6252 8.86515 27.4577 8.93805 27.3663 9.11302C26.8029 10.0899 26.8181 11.2564 26.1328 12.6562C26.1632 12.7728 26.148 12.6124 26.1785 12.7291C26.011 12.904 25.6607 13.079 25.5998 13.5747C25.5389 14.1434 25.9653 15.1641 26.4069 14.5517C26.5744 14.7704 26.9247 14.887 27.0617 14.5517C27.3206 14.9453 27.6709 14.5808 27.6404 14.0851C27.747 14.0268 27.7927 14.26 27.9603 14.26C28.4476 13.9539 28.3714 12.9332 27.8384 12.802C27.7623 12.6562 28.1278 12.627 28.0516 12.4958C27.747 11.6355 28.874 11.1398 29.1176 10.2212C29.3309 10.4253 30.3207 10.9794 30.8385 11.0669C29.803 11.7521 29.2395 13.6768 29.0263 14.887C28.9654 15.2224 29.209 15.4994 29.3004 15.7327C28.9197 15.8348 28.5085 16.4326 28.7826 16.8554C28.0821 17.4824 27.3359 18.0511 26.8638 18.9696C26.346 18.5176 23.7266 17.2783 22.9195 16.9429C22.7367 17.2491 22.5997 17.6136 22.4474 17.9344C22.3408 17.7449 22.1428 17.5991 21.8687 17.497L24.9906 0.466607ZM39.7779 25.7351H20.3306L20.9702 22.2503C21.0616 22.1774 21.1225 22.0608 21.1377 21.915C21.1377 21.8421 21.1225 21.7546 21.0768 21.6817L21.3509 20.209C21.3814 20.1799 21.4118 20.1653 21.427 20.1361C21.5793 20.0195 21.9448 19.8007 22.0362 19.8882C22.0819 20.0632 21.7316 19.9611 21.8078 20.0632C23.285 20.2382 27.214 22.5128 28.1887 22.0754C29.0872 21.1276 30.1684 20.3986 30.9908 19.3633C32.1787 18.6634 34.6153 19.305 36.1686 19.4508C37.1737 21.1422 37.7677 23.898 39.0774 25.1811C39.3058 25.1665 39.7017 24.9769 39.7779 25.0353C39.7322 25.2831 39.7322 25.531 39.7779 25.7351Z" fill="#FF0004"/>
<path fill-rule="evenodd" clip-rule="evenodd" d="M15.4267 0.466553H24.0614L20.9395 17.4532H20.8329C20.6045 18.4738 19.4166 18.9258 19.2643 20.0777C19.1577 20.8943 19.5385 21.565 20.0715 22.0753L19.4014 25.7497H10.7666L15.4267 0.466553Z" fill="#FF7B00"/>
<path d="M97.069 35.8833H95.1197L96.3533 29.3073H93.9775L94.2821 27.718H100.968L100.663 29.3073H98.2873L97.069 35.8833Z" fill="black"/>
<path d="M101.592 33.9588C101.577 34.0171 101.562 34.09 101.562 34.1483C101.562 34.2649 101.622 34.3379 101.805 34.3379C102.14 34.3379 102.993 33.9879 103.465 33.7692L104.166 30.0511L106.069 29.8032L104.927 35.8834H103.343L103.328 35.3293C102.323 35.7668 101.531 36.0001 100.8 36.0001C99.9625 36.0001 99.6274 35.5335 99.6274 34.7899C99.6274 34.542 99.6579 34.3524 99.6884 34.1046L100.45 30.0511L102.353 29.8032L101.592 33.9588Z" fill="black"/>
<path d="M109.176 35.4605L109.603 34.0754C110.44 34.3087 111.141 34.4836 111.994 34.4836C113.014 34.4836 113.258 34.2941 113.395 33.5942C113.44 33.4192 113.44 33.2734 113.44 33.1714C113.44 32.8068 113.181 32.7048 112.115 32.4423C110.653 32.0924 110.12 31.6258 110.12 30.6635C110.12 30.401 110.166 30.1094 110.227 29.774C110.608 27.9514 111.141 27.5869 113.517 27.5869C114.187 27.5869 115.298 27.7181 116.075 27.9077L115.74 29.4095C114.963 29.2345 113.958 29.1325 113.364 29.1325C112.42 29.1325 112.237 29.2491 112.115 29.9053C112.085 30.0948 112.07 30.2406 112.07 30.3427C112.07 30.7364 112.329 30.7947 113.364 31.0426C114.994 31.4217 115.451 31.8882 115.451 32.7194C115.451 32.9818 115.405 33.2588 115.344 33.5942C115.024 35.271 114.4 36 111.902 36C111.141 36 109.862 35.7667 109.176 35.4605Z" fill="black"/>
<path d="M116.212 34.0024C116.212 33.8711 116.227 33.7253 116.258 33.5795L116.516 32.1943C116.806 30.6634 117.613 29.7739 119.852 29.7739C121.572 29.7739 122.349 30.6925 122.349 31.7569C122.349 31.8881 122.334 32.034 122.303 32.1798L122.045 33.5649C121.77 34.9939 121.024 35.9853 118.694 35.9853C117.08 35.9999 116.212 35.0959 116.212 34.0024ZM120.506 31.9027C120.506 31.4653 120.217 31.232 119.608 31.232C118.907 31.232 118.496 31.5674 118.39 32.1506L118.116 33.6378C118.1 33.7253 118.085 33.8128 118.085 33.8857C118.085 34.3086 118.374 34.5564 118.984 34.5564C119.699 34.5564 120.095 34.2211 120.202 33.6378L120.476 32.1506C120.491 32.0631 120.506 31.9756 120.506 31.9027Z" fill="black"/>
<path d="M124.481 27.4703L126.385 27.2224L124.755 35.8834H122.897L124.481 27.4703Z" fill="black"/>
<path d="M128.593 33.9588C128.578 34.0171 128.562 34.09 128.562 34.1483C128.562 34.2649 128.623 34.3379 128.806 34.3379C129.141 34.3379 129.994 33.9879 130.466 33.7692L131.167 30.0511L133.07 29.8032L131.928 35.8834H130.344L130.329 35.3293C129.324 35.7668 128.532 36.0001 127.801 36.0001C126.963 36.0001 126.628 35.5335 126.628 34.7899C126.628 34.542 126.659 34.3524 126.689 34.1046L127.451 30.0511L129.354 29.8032L128.593 33.9588Z" fill="black"/>
<path d="M133.573 34.4836C133.573 34.1774 133.603 33.9149 133.679 33.5796L134.03 31.9174C134.38 30.226 135.263 29.7886 137.091 29.7886C137.654 29.7886 138.218 29.9052 138.583 30.0364L138.141 31.4362C137.822 31.3341 137.441 31.2612 137.075 31.2612C136.238 31.2612 135.948 31.5091 135.827 32.1944L135.492 34.0024C135.476 34.0753 135.461 34.1774 135.461 34.2357C135.461 34.4253 135.568 34.5273 135.796 34.5273C136.268 34.5273 137.152 34.2795 137.593 34.1628L137.761 35.548C137.228 35.7959 136.329 36 135.644 36C134.167 36 133.573 35.5334 133.573 34.4836Z" fill="black"/>
<path d="M139.938 30.0365L141.842 29.7886L140.685 35.8688H138.827L139.938 30.0365ZM140.441 27.4119L142.345 27.1641L141.994 29.0012L140.091 29.2491L140.441 27.4119Z" fill="black"/>
<path d="M142.421 34.0025C142.421 33.8713 142.436 33.7255 142.467 33.5797L142.725 32.1945C143.015 30.6635 143.822 29.7741 146.061 29.7741C147.781 29.7741 148.558 30.6927 148.558 31.7571C148.558 31.8883 148.543 32.0341 148.512 32.1799L148.254 33.5651C147.979 34.994 147.233 35.9855 144.903 35.9855C143.289 36.0001 142.421 35.0961 142.421 34.0025ZM146.7 31.9029C146.7 31.4654 146.411 31.2321 145.802 31.2321C145.101 31.2321 144.69 31.5675 144.583 32.1507L144.309 33.638C144.294 33.7255 144.279 33.8129 144.279 33.8859C144.279 34.3087 144.568 34.5566 145.177 34.5566C145.893 34.5566 146.289 34.2212 146.396 33.638L146.67 32.1507C146.7 32.0633 146.7 31.9758 146.7 31.9029ZM145.253 28.3743C145.954 28.0244 146.67 27.6015 147.416 27.1204L148.01 28.1264C147.233 28.6222 146.655 28.8992 145.802 29.2783L145.253 28.3743Z" fill="black"/>
<path d="M153.569 31.8154C153.584 31.7425 153.599 31.6842 153.599 31.6259C153.599 31.5092 153.538 31.4509 153.355 31.4509C153.02 31.4509 152.198 31.7717 151.695 32.0195L150.964 35.8689H149.106L150.203 30.0366L151.832 29.7741L151.817 30.4302C152.822 29.9928 153.614 29.7595 154.345 29.7595C155.198 29.7595 155.518 30.2115 155.518 30.9697C155.518 31.1739 155.503 31.3488 155.457 31.655L154.665 35.8543H152.807L153.569 31.8154Z" fill="black"/>
</g>
<defs>
<clipPath id="clip0_5_181">
<rect width="158" height="36" fill="white"/>
</clipPath>
</defs>
</svg>
